<?xml version="1.0" encoding="UTF-8"?>
<!DOCTYPE svg PUBLIC "-//W3C//DTD SVG 1.1//EN" "http://www.w3.org/Graphics/SVG/1.1/DTD/svg11.dtd">
<svg xmlns="http://www.w3.org/2000/svg" version="1.1" width="1079px" height="895px" style="shape-rendering:geometricPrecision; text-rendering:geometricPrecision; image-rendering:optimizeQuality; fill-rule:evenodd; clip-rule:evenodd" xmlns:xlink="http://www.w3.org/1999/xlink">
<g><path style="opacity:0.947" fill="#fed15b" d="M 512.5,-0.5 C 514.167,-0.5 515.833,-0.5 517.5,-0.5C 521.101,0.491156 524.768,1.65782 528.5,3C 536,7.91779 543.667,12.5845 551.5,17C 554.258,24.44 556.925,31.94 559.5,39.5C 561.811,27.7763 564.311,16.1096 567,4.5C 569,14.4974 571,24.4974 573,34.5C 578.385,28.1162 583.385,21.4495 588,14.5C 585.647,27.2451 582.98,39.9118 580,52.5C 585,46.5 590,40.5 595,34.5C 596.113,32.6707 597.613,31.8374 599.5,32C 593.793,45.5802 588.793,59.4135 584.5,73.5C 566.164,68.6901 547.498,66.0235 528.5,65.5C 528.666,59.8236 528.499,54.1569 528,48.5C 524.373,42.0796 520.873,35.5796 517.5,29C 518.908,28.6848 520.241,29.0181 521.5,30C 529.246,35.6231 537.079,41.1231 545,46.5C 545.388,38.8153 545.055,31.1486 544,23.5C 533.315,15.6365 522.815,7.63651 512.5,-0.5 Z"/></g>
<g><path style="opacity:0.995" fill="#eaedf5" d="M 166.5,33.5 C 197.956,35.4537 212.456,52.1203 210,83.5C 201.486,108.18 184.319,118.013 158.5,113C 140.713,106.368 131.046,93.5351 129.5,74.5C 131.773,51.5684 144.106,37.9018 166.5,33.5 Z"/></g>
<g><path style="opacity:0.994" fill="#60588d" d="M 528.5,65.5 C 547.498,66.0235 566.164,68.6901 584.5,73.5C 586.168,75.34 587.668,77.34 589,79.5C 591.567,98.2186 598.234,115.219 609,130.5C 622.597,145.101 637.097,158.601 652.5,171C 658.178,174.841 664.178,178.174 670.5,181C 682.309,185.408 693.976,190.075 705.5,195C 712.295,200.735 714.961,207.902 713.5,216.5C 704.114,209.083 693.447,204.249 681.5,202C 667.852,199.419 654.185,196.919 640.5,194.5C 639.584,194.543 638.917,194.876 638.5,195.5C 634.131,193.688 629.464,192.521 624.5,192C 608.529,189.837 592.529,188.003 576.5,186.5C 558.579,187.985 541.245,191.652 524.5,197.5C 520.5,198.167 516.5,198.833 512.5,199.5C 512.737,200.791 512.404,201.791 511.5,202.5C 511.209,201.351 510.376,200.684 509,200.5C 505.837,201.25 502.67,201.916 499.5,202.5C 491.007,203.663 482.673,204.997 474.5,206.5C 460.179,207.242 445.846,207.575 431.5,207.5C 421.02,205.701 410.353,204.201 399.5,203C 390.744,201.136 382.078,198.969 373.5,196.5C 379.069,184.69 388.069,176.523 400.5,172C 417.162,165.779 433.495,158.779 449.5,151C 458.061,145.891 466.061,140.058 473.5,133.5C 473.897,134.525 474.563,134.692 475.5,134C 484.662,127.585 493.995,121.418 503.5,115.5C 505.766,119.034 507.766,122.7 509.5,126.5C 511.576,132.713 514.242,138.713 517.5,144.5C 522.755,134.99 527.755,125.324 532.5,115.5C 542.051,113.397 551.718,111.897 561.5,111C 552.167,106.667 542.833,102.333 533.5,98C 530.964,95.295 528.297,92.795 525.5,90.5C 522.167,86.5 518.5,82.8333 514.5,79.5C 515.552,71.1144 520.219,66.4477 528.5,65.5 Z"/></g>
<g><path style="opacity:0.825" fill="#ffd15a" d="M 358.5,71.5 C 360.117,75.5396 360.95,79.8729 361,84.5C 365.42,86.0195 369.92,87.3529 374.5,88.5C 369.955,89.7603 365.455,91.0936 361,92.5C 360.022,97.223 358.856,101.89 357.5,106.5C 356.258,101.133 354.925,95.7999 353.5,90.5C 348.552,88.846 343.552,87.346 338.5,86C 343.864,85.8295 349.198,85.3295 354.5,84.5C 356.242,80.2746 357.576,75.9413 358.5,71.5 Z"/></g>
<g><path style="opacity:0.846" fill="#ffd15a" d="M 758.5,74.5 C 759.787,75.8714 760.453,77.7047 760.5,80C 760.927,84.8408 761.427,89.6742 762,94.5C 768.743,96.2493 775.577,97.7493 782.5,99C 775.672,101.291 768.672,103.124 761.5,104.5C 760.473,112.303 758.806,119.97 756.5,127.5C 754.954,119.182 753.454,110.849 752,102.5C 744.207,100.093 736.373,97.7592 728.5,95.5C 736.5,94.8333 744.5,94.1667 752.5,93.5C 754.908,87.2761 756.908,80.9428 758.5,74.5 Z"/></g>
<g><path style="opacity:0.991" fill="#2c264e" d="M 514.5,79.5 C 518.5,82.8333 522.167,86.5 525.5,90.5C 519.972,102.417 514.639,114.417 509.5,126.5C 507.766,122.7 505.766,119.034 503.5,115.5C 493.995,121.418 484.662,127.585 475.5,134C 474.563,134.692 473.897,134.525 473.5,133.5C 490.238,117.772 503.904,99.7715 514.5,79.5 Z"/></g>
<g><path style="opacity:1" fill="#face5b" d="M 525.5,90.5 C 528.297,92.795 530.964,95.295 533.5,98C 542.833,102.333 552.167,106.667 561.5,111C 551.718,111.897 542.051,113.397 532.5,115.5C 527.755,125.324 522.755,134.99 517.5,144.5C 514.242,138.713 511.576,132.713 509.5,126.5C 514.639,114.417 519.972,102.417 525.5,90.5 Z"/></g>
<g><path style="opacity:0.87" fill="#ffd15a" d="M 257.5,180.5 C 258.222,180.918 258.722,181.584 259,182.5C 259.651,188.827 260.151,195.16 260.5,201.5C 267.631,202.426 274.631,203.926 281.5,206C 274.59,207.978 267.59,209.478 260.5,210.5C 259.486,218.744 257.653,226.744 255,234.5C 253.506,225.869 252.339,217.202 251.5,208.5C 243.42,206.647 235.42,204.48 227.5,202C 235.493,201.5 243.493,201.334 251.5,201.5C 253.5,194.5 255.5,187.5 257.5,180.5 Z"/></g>
<g><path style="opacity:0.998" fill="#fd6c5b" d="M 638.5,195.5 C 646.17,211.53 647.67,228.197 643,245.5C 641.875,252.705 640.041,259.705 637.5,266.5C 636.182,270.332 633.848,273.499 630.5,276C 623.167,280 615.833,284 608.5,288C 606.959,289.371 605.625,290.871 604.5,292.5C 591.944,297.198 578.944,300.031 565.5,301C 557.507,301.5 549.507,301.666 541.5,301.5C 525.428,300.729 509.428,299.229 493.5,297C 490.107,296.202 486.774,295.202 483.5,294C 477.751,291.699 472.751,288.533 468.5,284.5C 461.733,280.946 455.066,277.113 448.5,273C 441.617,266.728 436.617,259.228 433.5,250.5C 431.245,241.136 429.912,231.636 429.5,222C 429.346,217.002 430.013,212.168 431.5,207.5C 445.846,207.575 460.179,207.242 474.5,206.5C 477.674,217.503 485.007,223.003 496.5,223C 501.833,223.667 507.167,223.667 512.5,223C 518.623,219.211 523.79,214.378 528,208.5C 527.998,204.488 526.831,200.821 524.5,197.5C 541.245,191.652 558.579,187.985 576.5,186.5C 592.529,188.003 608.529,189.837 624.5,192C 629.464,192.521 634.131,193.688 638.5,195.5 Z"/></g>
<g><path style="opacity:1" fill="#fefbfb" d="M 586.5,190.5 C 592.871,190.488 599.204,190.988 605.5,192C 608.562,193.061 611.062,194.894 613,197.5C 616.385,203.602 619.218,209.935 621.5,216.5C 618.139,222.371 613.806,227.538 608.5,232C 601.006,234.826 593.339,235.159 585.5,233C 582.241,231.789 579.408,229.956 577,227.5C 575,223.5 573,219.5 571,215.5C 570.333,213.833 570.333,212.167 571,210.5C 574.213,202.144 579.38,195.477 586.5,190.5 Z"/></g>
<g><path style="opacity:0.992" fill="#2b254e" d="M 713.5,216.5 C 706.066,228.435 696.399,238.268 684.5,246C 669.252,253.912 653.585,260.745 637.5,266.5C 640.041,259.705 641.875,252.705 643,245.5C 647.67,228.197 646.17,211.53 638.5,195.5C 638.917,194.876 639.584,194.543 640.5,194.5C 654.185,196.919 667.852,199.419 681.5,202C 693.447,204.249 704.114,209.083 713.5,216.5 Z"/></g>
<g><path style="opacity:0.991" fill="#2b254e" d="M 373.5,196.5 C 382.078,198.969 390.744,201.136 399.5,203C 410.353,204.201 421.02,205.701 431.5,207.5C 430.013,212.168 429.346,217.002 429.5,222C 429.912,231.636 431.245,241.136 433.5,250.5C 412.559,244.786 395.392,233.453 382,216.5C 378.319,210.144 375.486,203.478 373.5,196.5 Z"/></g>
<g><path style="opacity:1" fill="#fdfafb" d="M 524.5,197.5 C 526.831,200.821 527.998,204.488 528,208.5C 523.79,214.378 518.623,219.211 512.5,223C 507.167,223.667 501.833,223.667 496.5,223C 485.007,223.003 477.674,217.503 474.5,206.5C 482.673,204.997 491.007,203.663 499.5,202.5C 501.476,207.315 504.809,208.481 509.5,206C 510.823,205.184 511.489,204.017 511.5,202.5C 512.404,201.791 512.737,200.791 512.5,199.5C 516.5,198.833 520.5,198.167 524.5,197.5 Z"/></g>
<g><path style="opacity:1" fill="#31264e" d="M 554.5,197.5 C 555.5,197.5 556.5,197.5 557.5,197.5C 559.915,211.403 561.581,225.403 562.5,239.5C 554.429,239.597 546.429,238.93 538.5,237.5C 543.276,223.948 548.609,210.614 554.5,197.5 Z"/></g>
<g><path style="opacity:1" fill="#352e56" d="M 511.5,202.5 C 511.489,204.017 510.823,205.184 509.5,206C 504.809,208.481 501.476,207.315 499.5,202.5C 502.67,201.916 505.837,201.25 509,200.5C 510.376,200.684 511.209,201.351 511.5,202.5 Z"/></g>
<g><path style="opacity:1" fill="#312b53" d="M 595.5,204.5 C 602.88,204.043 605.713,207.376 604,214.5C 600.088,219.701 596.088,219.701 592,214.5C 590.756,210.191 591.923,206.858 595.5,204.5 Z"/></g>
<g><path style="opacity:1" fill="#32264e" d="M 470.5,239.5 C 476.987,238.346 483.654,238.179 490.5,239C 496.095,243.61 501.929,247.777 508,251.5C 514.474,249.564 520.807,247.231 527,244.5C 532.614,248.719 538.114,253.053 543.5,257.5C 551.088,254.304 558.754,251.304 566.5,248.5C 570.856,251.345 575.356,254.011 580,256.5C 584.232,254.3 588.398,251.967 592.5,249.5C 600.821,251.666 609.154,253.832 617.5,256C 609.163,256.616 600.829,257.282 592.5,258C 586.738,262.295 580.904,266.462 575,270.5C 571.05,266.386 566.883,262.386 562.5,258.5C 555.167,262.167 547.833,265.833 540.5,269.5C 535.15,264.315 529.65,259.315 524,254.5C 519.249,257.459 514.416,260.293 509.5,263C 508.5,263.667 507.5,263.667 506.5,263C 500.876,257.197 494.876,251.864 488.5,247C 482.593,244.211 476.593,241.711 470.5,239.5 Z"/></g>
<g><path style="opacity:0.849" fill="#ffd15a" d="M 805.5,263.5 C 806.551,268.646 807.218,273.979 807.5,279.5C 813.02,280.103 818.353,281.269 823.5,283C 817.98,283.935 812.647,285.435 807.5,287.5C 806.309,293.306 804.809,298.973 803,304.5C 801.838,297.865 801.005,291.199 800.5,284.5C 794.11,283.316 787.777,281.816 781.5,280C 787.825,279.5 794.158,279.334 800.5,279.5C 801.768,274.03 803.435,268.696 805.5,263.5 Z"/></g>
<g><path style="opacity:0.999" fill="#837ba8" d="M 468.5,284.5 C 472.751,288.533 477.751,291.699 483.5,294C 486.774,295.202 490.107,296.202 493.5,297C 509.428,299.229 525.428,300.729 541.5,301.5C 542.263,302.268 543.263,302.768 544.5,303C 531.29,305.263 520.623,311.597 512.5,322C 521.01,322.171 529.343,322.671 537.5,323.5C 528.5,323.5 519.5,323.5 510.5,323.5C 495.883,320.236 481.883,315.07 468.5,308C 463.057,304.685 461.057,299.851 462.5,293.5C 462.932,289.41 464.932,286.41 468.5,284.5 Z"/></g>
<g><path style="opacity:1" fill="#60578d" d="M 604.5,292.5 C 605.122,293.627 605.955,294.627 607,295.5C 607.676,300.871 607.509,306.204 606.5,311.5C 596.649,318.673 585.649,322.673 573.5,323.5C 576.894,380.526 580.56,437.526 584.5,494.5C 582.833,494.5 581.167,494.5 579.5,494.5C 579.5,489.833 579.5,485.167 579.5,480.5C 576.482,480.704 573.482,481.037 570.5,481.5C 570.998,486.152 571.331,490.819 571.5,495.5C 569.833,495.5 568.167,495.5 566.5,495.5C 566.5,490.833 566.5,486.167 566.5,481.5C 563.482,481.704 560.482,482.037 557.5,482.5C 558.314,487.119 558.647,491.786 558.5,496.5C 556.833,496.5 555.167,496.5 553.5,496.5C 553.5,492.167 553.5,487.833 553.5,483.5C 550.5,483.5 547.5,483.5 544.5,483.5C 544.5,488.167 544.5,492.833 544.5,497.5C 543.167,497.5 541.833,497.5 540.5,497.5C 540.454,470.829 540.121,444.162 539.5,417.5C 538.508,386.175 537.841,354.842 537.5,323.5C 529.343,322.671 521.01,322.171 512.5,322C 520.623,311.597 531.29,305.263 544.5,303C 543.263,302.768 542.263,302.268 541.5,301.5C 549.507,301.666 557.507,301.5 565.5,301C 578.944,300.031 591.944,297.198 604.5,292.5 Z"/></g>
<g><path style="opacity:0.994" fill="#2b254e" d="M 462.5,293.5 C 461.057,299.851 463.057,304.685 468.5,308C 481.883,315.07 495.883,320.236 510.5,323.5C 499.77,353.357 489.436,383.357 479.5,413.5C 458.595,471.545 438.262,529.878 418.5,588.5C 412.905,587.114 407.238,586.114 401.5,585.5C 392.812,583.629 384.146,581.629 375.5,579.5C 374.149,575.749 372.649,572.082 371,568.5C 367.833,571 364.667,573.5 361.5,576C 357.479,575.965 353.479,575.465 349.5,574.5C 349.666,567.825 349.5,561.158 349,554.5C 343.5,560 338,565.5 332.5,571C 323.737,570.54 315.07,569.207 306.5,567C 343.716,501.055 380.216,434.888 416,368.5C 395.733,378.046 374.566,384.88 352.5,389C 318.502,389.5 284.502,389.667 250.5,389.5C 248.687,405.19 246.687,420.857 244.5,436.5C 243.71,437.609 243.21,438.942 243,440.5C 241.989,441.337 240.822,441.67 239.5,441.5C 239.5,439.833 239.5,438.167 239.5,436.5C 241.5,420.833 243.5,405.167 245.5,389.5C 219.167,389.5 192.833,389.5 166.5,389.5C 166.5,380.833 166.5,372.167 166.5,363.5C 166.5,363.167 166.5,362.833 166.5,362.5C 167.492,355.018 167.825,347.352 167.5,339.5C 167.821,333.974 167.488,328.64 166.5,323.5C 166.5,319.833 166.5,316.167 166.5,312.5C 242.75,307.438 319.084,303.938 395.5,302C 418.075,300.703 440.408,297.87 462.5,293.5 Z"/></g>
<g><path style="opacity:0.962" fill="#fed15a" d="M 166.5,323.5 C 166.5,328.5 166.5,333.5 166.5,338.5C 137.329,338.169 108.329,338.502 79.5,339.5C 72.8904,343.968 72.8904,348.468 79.5,353C 108.498,353.5 137.498,353.667 166.5,353.5C 166.5,356.5 166.5,359.5 166.5,362.5C 166.5,362.833 166.5,363.167 166.5,363.5C 126.924,373.228 87.5904,383.894 48.5,395.5C 47.479,394.998 47.3123,394.332 48,393.5C 56.1667,383.333 64.3333,373.167 72.5,363C 58.0488,364.825 43.7155,367.158 29.5,370C 41.6681,362.415 54.0015,355.082 66.5,348C 55.8333,347.667 45.1667,347.333 34.5,347C 22.8051,339.489 11.1384,331.989 -0.5,324.5C -0.5,324.167 -0.5,323.833 -0.5,323.5C 32.699,325.394 65.699,328.56 98.5,333C 79.6671,321.082 60.6671,309.416 41.5,298C 83.2325,305.913 124.899,314.413 166.5,323.5 Z"/></g>
<g><path style="opacity:0.991" fill="#2b254e" d="M 606.5,311.5 C 628.114,324.209 651.114,333.709 675.5,340C 683.783,341.41 692.117,342.41 700.5,343C 769.905,345.064 839.238,343.564 908.5,338.5C 908.17,355.009 908.504,371.342 909.5,387.5C 909.5,399.167 909.5,410.833 909.5,422.5C 884.83,423.043 860.163,423.71 835.5,424.5C 839.091,442.787 842.424,461.12 845.5,479.5C 845.5,481.167 845.5,482.833 845.5,484.5C 842.6,484.592 840.933,483.259 840.5,480.5C 837.453,461.763 833.953,443.096 830,424.5C 807.572,425.796 785.072,426.796 762.5,427.5C 761.051,440.541 759.385,453.541 757.5,466.5C 756.699,468.042 756.366,469.708 756.5,471.5C 753.09,471.616 751.756,469.95 752.5,466.5C 754.094,453.491 755.76,440.491 757.5,427.5C 742.418,429.239 727.418,428.739 712.5,426C 677.902,416.184 643.236,406.684 608.5,397.5C 628.625,455.873 648.958,514.207 669.5,572.5C 661.644,574.688 653.644,575.521 645.5,575C 642.318,571.651 638.985,568.484 635.5,565.5C 633.592,569.064 631.592,572.564 629.5,576C 620.159,577.902 610.826,579.735 601.5,581.5C 597.843,576.196 594.177,570.862 590.5,565.5C 586.787,571.089 583.454,576.922 580.5,583C 565.826,584.871 551.159,586.704 536.5,588.5C 537.753,558.16 539.086,527.827 540.5,497.5C 541.833,497.5 543.167,497.5 544.5,497.5C 544.5,492.833 544.5,488.167 544.5,483.5C 547.5,483.5 550.5,483.5 553.5,483.5C 553.5,487.833 553.5,492.167 553.5,496.5C 555.167,496.5 556.833,496.5 558.5,496.5C 558.647,491.786 558.314,487.119 557.5,482.5C 560.482,482.037 563.482,481.704 566.5,481.5C 566.5,486.167 566.5,490.833 566.5,495.5C 568.167,495.5 569.833,495.5 571.5,495.5C 571.331,490.819 570.998,486.152 570.5,481.5C 573.482,481.037 576.482,480.704 579.5,480.5C 579.5,485.167 579.5,489.833 579.5,494.5C 581.167,494.5 582.833,494.5 584.5,494.5C 580.56,437.526 576.894,380.526 573.5,323.5C 585.649,322.673 596.649,318.673 606.5,311.5 Z"/></g>
<g><path style="opacity:1" fill="#fdd05b" d="M 510.5,323.5 C 519.5,323.5 528.5,323.5 537.5,323.5C 537.841,354.842 538.508,386.175 539.5,417.5C 519.473,416.462 499.473,415.128 479.5,413.5C 489.436,383.357 499.77,353.357 510.5,323.5 Z"/></g>
<g><path style="opacity:0.961" fill="#fed15b" d="M 1078.5,378.5 C 1078.5,378.833 1078.5,379.167 1078.5,379.5C 1066.06,376.808 1053.73,373.641 1041.5,370C 1025.17,369.333 1008.83,369.333 992.5,370C 1010.04,378.289 1027.38,386.956 1044.5,396C 1025.26,391.024 1005.93,386.357 986.5,382C 1000.04,395.044 1013.71,407.878 1027.5,420.5C 1027.17,420.833 1026.83,421.167 1026.5,421.5C 1002.83,410.333 979.167,399.167 955.5,388C 940.17,387.5 924.837,387.333 909.5,387.5C 909.5,376.167 909.5,364.833 909.5,353.5C 938.502,353.667 967.502,353.5 996.5,353C 1002.29,349.468 1002.96,345.135 998.5,340C 986.659,339.831 974.993,339.331 963.5,338.5C 986.746,333.084 1010.08,328.251 1033.5,324C 1023.67,331.005 1014,338.172 1004.5,345.5C 1016.11,348.213 1027.78,350.713 1039.5,353C 1052.22,362.018 1065.22,370.518 1078.5,378.5 Z"/></g>
<g><path style="opacity:1" fill="#baa07b" d="M 166.5,323.5 C 167.488,328.64 167.821,333.974 167.5,339.5C 138.167,339.5 108.833,339.5 79.5,339.5C 108.329,338.502 137.329,338.169 166.5,338.5C 166.5,333.5 166.5,328.5 166.5,323.5 Z"/></g>
<g><path style="opacity:1" fill="#877fa7" d="M 79.5,339.5 C 108.833,339.5 138.167,339.5 167.5,339.5C 167.825,347.352 167.492,355.018 166.5,362.5C 166.5,359.5 166.5,356.5 166.5,353.5C 137.498,353.667 108.498,353.5 79.5,353C 72.8904,348.468 72.8904,343.968 79.5,339.5 Z"/></g>
<g><path style="opacity:1" fill="#877ea5" d="M 908.5,338.5 C 926.833,338.5 945.167,338.5 963.5,338.5C 974.993,339.331 986.659,339.831 998.5,340C 1002.96,345.135 1002.29,349.468 996.5,353C 967.502,353.5 938.502,353.667 909.5,353.5C 909.5,364.833 909.5,376.167 909.5,387.5C 908.504,371.342 908.17,355.009 908.5,338.5 Z"/></g>
<g><path style="opacity:0.996" fill="#fe6d5a" d="M 479.5,413.5 C 499.473,415.128 519.473,416.462 539.5,417.5C 540.121,444.162 540.454,470.829 540.5,497.5C 539.086,527.827 537.753,558.16 536.5,588.5C 551.159,586.704 565.826,584.871 580.5,583C 583.454,576.922 586.787,571.089 590.5,565.5C 594.177,570.862 597.843,576.196 601.5,581.5C 598.809,610.218 595.642,638.885 592,667.5C 588.853,681.471 582.353,693.471 572.5,703.5C 558.233,707.367 543.899,707.367 529.5,703.5C 528.89,701.566 527.89,699.899 526.5,698.5C 521.78,687.285 518.78,675.619 517.5,663.5C 517.5,614.167 517.5,564.833 517.5,515.5C 514.615,515.194 511.948,515.527 509.5,516.5C 508.699,518.042 508.366,519.708 508.5,521.5C 503.833,533.5 499.167,545.5 494.5,557.5C 484.731,551.108 474.731,544.941 464.5,539C 463.241,538.018 461.908,537.685 460.5,538C 464.588,558.029 467.755,578.195 470,598.5C 458.652,609.681 447.486,621.014 436.5,632.5C 436.833,632.833 437.167,633.167 437.5,633.5C 447.68,630.731 458.013,628.731 468.5,627.5C 462.796,645.579 455.963,663.246 448,680.5C 442.406,690.255 435.239,698.588 426.5,705.5C 413.853,706.386 401.187,704.886 388.5,701C 384.476,699.326 380.809,697.159 377.5,694.5C 374.245,682.321 373.745,669.988 376,657.5C 384.011,633.298 392.511,609.298 401.5,585.5C 407.238,586.114 412.905,587.114 418.5,588.5C 438.262,529.878 458.595,471.545 479.5,413.5 Z"/></g>
<g><path style="opacity:0.936" fill="#60588e" d="M 239.5,436.5 C 239.5,438.167 239.5,439.833 239.5,441.5C 240.822,441.67 241.989,441.337 243,440.5C 243.21,438.942 243.71,437.609 244.5,436.5C 250.231,437.249 255.898,438.415 261.5,440C 263.116,440.615 264.449,441.615 265.5,443C 265.272,443.399 264.938,443.565 264.5,443.5C 248.679,446.548 233.013,445.715 217.5,441C 216.627,439.955 215.627,439.122 214.5,438.5C 216.026,436.87 218.026,436.037 220.5,436C 226.87,435.294 233.203,435.461 239.5,436.5 Z"/></g>
<g><path style="opacity:0.994" fill="#847daa" d="M 214.5,438.5 C 215.627,439.122 216.627,439.955 217.5,441C 233.013,445.715 248.679,446.548 264.5,443.5C 263.173,449.314 261.34,454.981 259,460.5C 258.833,462.667 258.667,464.833 258.5,467C 259.537,479.16 260.037,491.327 260,503.5C 249.022,506.878 237.855,507.378 226.5,505C 220.408,504.383 214.575,502.883 209,500.5C 209.132,493.173 210.298,486.006 212.5,479C 211.287,465.336 211.953,451.836 214.5,438.5 Z"/></g>
<g><path style="opacity:1" fill="#f6f5f9" d="M 239.5,461.5 C 242.206,461.575 244.873,461.908 247.5,462.5C 246.968,468.152 246.635,473.819 246.5,479.5C 248.167,479.5 249.833,479.5 251.5,479.5C 251.5,481.5 251.5,483.5 251.5,485.5C 249.5,485.5 247.5,485.5 245.5,485.5C 245.5,486.833 245.5,488.167 245.5,489.5C 242.833,489.5 240.167,489.5 237.5,489.5C 237.859,487.234 237.192,485.401 235.5,484C 229.82,483.555 224.154,483.055 218.5,482.5C 218.201,480.396 218.534,478.396 219.5,476.5C 226.235,471.479 232.901,466.479 239.5,461.5 Z"/></g>
<g><path style="opacity:0.952" fill="#60588e" d="M 752.5,466.5 C 751.756,469.95 753.09,471.616 756.5,471.5C 756.366,469.708 756.699,468.042 757.5,466.5C 763.898,467.248 770.231,468.415 776.5,470C 778.116,470.615 779.449,471.615 780.5,473C 780.272,473.399 779.938,473.565 779.5,473.5C 764.088,476.31 748.754,475.81 733.5,472C 731.676,471.34 730.343,470.173 729.5,468.5C 730.263,467.732 731.263,467.232 732.5,467C 739.158,466.5 745.825,466.334 752.5,466.5 Z"/></g>
<g><path style="opacity:1" fill="#8982ad" d="M 237.5,470.5 C 238.477,473.287 238.81,476.287 238.5,479.5C 234.753,479.608 231.086,479.108 227.5,478C 231.08,475.723 234.414,473.223 237.5,470.5 Z"/></g>
<g><path style="opacity:0.995" fill="#847daa" d="M 729.5,468.5 C 730.343,470.173 731.676,471.34 733.5,472C 748.754,475.81 764.088,476.31 779.5,473.5C 777.309,484.957 775.309,496.457 773.5,508C 774.172,515.71 775.172,523.377 776.5,531C 776.167,531.833 775.833,532.667 775.5,533.5C 766.696,536.197 757.696,537.03 748.5,536C 741.768,535.434 735.102,534.434 728.5,533C 726.668,532.252 725.001,531.252 723.5,530C 724.7,525.609 725.534,521.109 726,516.5C 726.117,500.271 727.284,484.271 729.5,468.5 Z"/></g>
<g><path style="opacity:0.939" fill="#60588e" d="M 869.5,479.5 C 868.251,481.136 866.584,482.303 864.5,483C 849.89,488.393 834.89,490.227 819.5,488.5C 820.823,486.314 822.823,484.814 825.5,484C 830.402,482.358 835.402,481.191 840.5,480.5C 840.933,483.259 842.6,484.592 845.5,484.5C 845.5,482.833 845.5,481.167 845.5,479.5C 850.608,478.549 855.774,477.882 861,477.5C 864.15,477.36 866.983,478.027 869.5,479.5 Z"/></g>
<g><path style="opacity:0.996" fill="#847daa" d="M 869.5,479.5 C 873.872,492.147 875.372,505.147 874,518.5C 876.167,525 878.333,531.5 880.5,538C 878.645,540.943 875.979,542.943 872.5,544C 858.885,548.785 844.885,550.785 830.5,550C 830,549.5 829.5,549 829,548.5C 828.667,542.167 828.333,535.833 828,529.5C 824.438,521.709 821.438,513.709 819,505.5C 818.182,499.651 818.348,493.985 819.5,488.5C 834.89,490.227 849.89,488.393 864.5,483C 866.584,482.303 868.251,481.136 869.5,479.5 Z"/></g>
<g><path style="opacity:1" fill="#faf9fb" d="M 746.5,492.5 C 761.177,490.025 768.011,496.025 767,510.5C 765.939,513.562 764.106,516.062 761.5,518C 755.903,519.456 750.237,519.789 744.5,519C 741.898,518.117 739.731,516.617 738,514.5C 735.557,507.977 736.057,501.811 739.5,496C 741.713,494.384 744.047,493.217 746.5,492.5 Z"/></g>
<g><path style="opacity:1" fill="#8780ac" d="M 747.5,498.5 C 756.708,496.887 760.875,500.554 760,509.5C 759.215,511.286 758.049,512.786 756.5,514C 746.899,516.715 742.399,513.215 743,503.5C 744.025,501.313 745.525,499.646 747.5,498.5 Z"/></g>
<g><path style="opacity:1" fill="#f9f9fb" d="M 850.5,503.5 C 852.924,503.192 855.257,503.526 857.5,504.5C 858.581,509.474 859.581,514.474 860.5,519.5C 862.409,518.652 864.409,518.318 866.5,518.5C 866.5,520.5 866.5,522.5 866.5,524.5C 862.898,524.506 860.898,526.34 860.5,530C 858.527,530.495 856.527,530.662 854.5,530.5C 854.5,529.167 854.5,527.833 854.5,526.5C 847.896,527.872 841.229,528.872 834.5,529.5C 834.337,527.143 834.503,524.81 835,522.5C 840.175,516.136 845.342,509.803 850.5,503.5 Z"/></g>
<g><path style="opacity:1" fill="#8982ad" d="M 850.5,512.5 C 852.175,515.507 852.841,518.84 852.5,522.5C 849.134,522.788 845.8,522.954 842.5,523C 845.383,519.624 848.049,516.124 850.5,512.5 Z"/></g>
<g><path style="opacity:0.995" fill="#2b254e" d="M 509.5,516.5 C 511.833,516.5 514.167,516.5 516.5,516.5C 516.168,565.67 516.501,614.67 517.5,663.5C 518.78,675.619 521.78,687.285 526.5,698.5C 526.5,704.833 526.5,711.167 526.5,717.5C 521.118,747.079 515.118,776.412 508.5,805.5C 508.5,710.833 508.5,616.167 508.5,521.5C 508.366,519.708 508.699,518.042 509.5,516.5 Z"/></g>
<g><path style="opacity:1" fill="#623751" d="M 509.5,516.5 C 511.948,515.527 514.615,515.194 517.5,515.5C 517.5,564.833 517.5,614.167 517.5,663.5C 516.501,614.67 516.168,565.67 516.5,516.5C 514.167,516.5 511.833,516.5 509.5,516.5 Z"/></g>
<g><path style="opacity:0.981" fill="#ffd15a" d="M 494.5,557.5 C 486.401,581.14 477.734,604.473 468.5,627.5C 458.013,628.731 447.68,630.731 437.5,633.5C 437.167,633.167 436.833,632.833 436.5,632.5C 447.486,621.014 458.652,609.681 470,598.5C 467.755,578.195 464.588,558.029 460.5,538C 461.908,537.685 463.241,538.018 464.5,539C 474.731,544.941 484.731,551.108 494.5,557.5 Z"/></g>
<g><path style="opacity:0.96" fill="#ffd15a" d="M 377.5,694.5 C 380.809,697.159 384.476,699.326 388.5,701C 401.187,704.886 413.853,706.386 426.5,705.5C 423.532,734.879 420.199,764.212 416.5,793.5C 413.757,790.346 411.257,787.012 409,783.5C 407.375,773.548 406.042,763.548 405,753.5C 394.333,766.833 383.667,780.167 373,793.5C 376.49,778.54 379.823,763.54 383,748.5C 377.333,759.833 371.667,771.167 366,782.5C 360.021,789.98 353.855,797.313 347.5,804.5C 348.712,795.271 350.545,785.938 353,776.5C 358.294,763.941 362.96,751.275 367,738.5C 362.79,746.425 357.957,753.925 352.5,761C 346.171,764.007 339.837,766.674 333.5,769C 348.393,744.28 363.06,719.446 377.5,694.5 Z"/></g>
<g><path style="opacity:0.967" fill="#fed05a" d="M 529.5,703.5 C 543.899,707.367 558.233,707.367 572.5,703.5C 580.001,736.507 587.668,769.507 595.5,802.5C 594.998,803.521 594.332,803.688 593.5,803C 589.905,799.95 586.405,796.784 583,793.5C 578.992,784.799 574.992,776.132 571,767.5C 570.667,786.5 570.333,805.5 570,824.5C 568,820.5 566,816.5 564,812.5C 560.186,787.8 556.186,763.133 552,738.5C 550.572,756.493 549.239,774.493 548,792.5C 545.637,804.478 543.471,816.478 541.5,828.5C 539.876,828.64 538.71,827.973 538,826.5C 534.849,807.291 533.182,787.958 533,768.5C 530.53,774.745 528.363,781.078 526.5,787.5C 520.824,793.013 515.658,799.013 511,805.5C 510.329,806.252 509.496,806.586 508.5,806.5C 508.5,806.167 508.5,805.833 508.5,805.5C 515.118,776.412 521.118,747.079 526.5,717.5C 527.99,713.058 528.99,708.391 529.5,703.5 Z"/></g>
<g><path style="opacity:0.968" fill="#2b254e" d="M 526.5,787.5 C 526.667,821.168 526.5,854.835 526,888.5C 524.668,890.66 523.168,892.66 521.5,894.5C 518.833,894.5 516.167,894.5 513.5,894.5C 511.525,893.354 510.025,891.687 509,889.5C 508.5,861.835 508.333,834.169 508.5,806.5C 509.496,806.586 510.329,806.252 511,805.5C 515.658,799.013 520.824,793.013 526.5,787.5 Z"/></g>
</svg>
